<svg width="308" height="81" viewBox="0 0 308 81" fill="none" xmlns="http://www.w3.org/2000/svg">
<g filter="url(#filter0_d_432_8655)">
<circle cx="44" cy="40.3184" r="36" fill="url(#paint0_radial_432_8655)"/>
</g>
<mask id="mask0_432_8655" style="mask-type:luminance" maskUnits="userSpaceOnUse" x="8" y="4" width="72" height="73">
<path d="M43.9306 76.1795C63.7745 76.1795 79.8611 60.0928 79.8611 40.2489C79.8611 20.405 63.7745 4.31836 43.9306 4.31836C24.0867 4.31836 8 20.405 8 40.2489C8 60.0928 24.0867 76.1795 43.9306 76.1795Z" fill="white"/>
</mask>
<g mask="url(#mask0_432_8655)">
<path d="M32.8087 48.3925H28.8651C27.6956 48.3925 26.6466 47.9612 25.9376 47.2522L24.6438 54.6495C24.5524 55.11 24.0883 55.5121 23.6278 55.5121C23.1672 55.5121 22.8273 55.11 22.9187 54.6495L26.0948 36.6495C26.5553 33.9669 29.0844 31.8105 31.767 31.8105H35.7435C37.0373 31.8105 38.1484 32.3332 38.8866 33.2286C39.6249 34.1533 39.9027 35.3557 39.687 36.6495L38.4554 43.5535C37.9912 46.2361 35.4657 48.3925 32.816 48.3925H32.8087ZM37.9547 36.6495C38.2617 34.9245 37.0921 33.5356 35.3963 33.5356H31.4527C29.7277 33.5356 28.1232 34.9208 27.8162 36.6495L26.5845 43.5535C26.2775 45.2786 27.4178 46.6674 29.1429 46.6674H33.0864C34.7823 46.6674 36.416 45.2822 36.723 43.5535L37.9547 36.6495Z" fill="white"/>
<path d="M39.8659 48.3922C39.4018 48.3922 39.0948 48.0231 39.1569 47.5589C39.2483 47.0984 39.6795 46.7256 40.1437 46.7256H47.9431C49.606 46.7256 51.2105 45.3989 51.4883 43.736C51.766 42.1023 50.655 40.7463 48.992 40.7463H44.6757C42.2087 40.7463 40.5457 38.7435 40.977 36.2765C41.4083 33.8095 43.7803 31.8066 46.2473 31.8066H53.4911C53.9516 31.8066 54.2294 32.1465 54.1709 32.607C54.0795 33.0712 53.6775 33.4403 53.2134 33.4403H45.9695C44.3979 33.4403 42.8885 34.7049 42.6107 36.2765C42.3329 37.8188 43.4111 39.1126 44.9827 39.1126H49.299C50.5307 39.1126 51.6125 39.5731 52.3508 40.4686C53.0891 41.3311 53.3376 42.5043 53.122 43.736C52.6615 46.2944 50.2237 48.3886 47.6653 48.3886H39.8659V48.3922Z" fill="white"/>
<path d="M58.4254 48.3922C55.7428 48.3922 53.9263 46.203 54.3868 43.5203L55.6185 36.6456C56.079 33.963 58.6374 31.8066 61.32 31.8066H65.3257C68.0083 31.8066 69.8248 33.963 69.3643 36.6456L68.7174 40.1908C68.6552 40.6513 68.224 41.0241 67.7635 41.0241H56.481L56.0205 43.5203C55.7135 45.2783 56.916 46.7256 58.7032 46.7256H66.5026C66.9338 46.7256 67.2408 47.0948 67.1495 47.5589C67.0873 48.0231 66.6561 48.3593 66.2248 48.3593L58.4254 48.3886V48.3922ZM61.0459 33.444C59.2587 33.444 57.5629 34.8913 57.2559 36.6493L56.7624 39.3612H67.2408L67.7342 36.6493C68.0412 34.8913 66.8388 33.444 65.0516 33.444H61.0459Z" fill="white"/>
<path d="M6.49396 35.6004H12.2064L15.0645 39.2552H2.72949V40.3516H18.5731L16.563 44.3719H12.5975V45.4684H17.1843L19.8268 40.3516H24.1943L24.4172 39.2552H16.6946L12.8168 34.5039H6.33315L6.49396 35.6004Z" fill="#FDB913"/>
<path d="M8.42027 31.5876C9.33869 31.5876 10.0832 30.8431 10.0832 29.9247C10.0832 29.0062 9.33869 28.2617 8.42027 28.2617C7.50185 28.2617 6.75732 29.0062 6.75732 29.9247C6.75732 30.8431 7.50185 31.5876 8.42027 31.5876Z" fill="#FDB913"/>
<path d="M8.4202 51.2105C9.15494 51.2105 9.75056 50.6149 9.75056 49.8802C9.75056 49.1454 9.15494 48.5498 8.4202 48.5498C7.68547 48.5498 7.08984 49.1454 7.08984 49.8802C7.08984 50.6149 7.68547 51.2105 8.4202 51.2105Z" fill="#FDB913"/>
<path d="M11.7059 26.6569C12.6243 26.6569 13.3689 25.9124 13.3689 24.994C13.3689 24.0756 12.6243 23.3311 11.7059 23.3311C10.7875 23.3311 10.043 24.0756 10.043 24.994C10.043 25.9124 10.7875 26.6569 11.7059 26.6569Z" fill="#FDB913"/>
<path d="M11.7059 46.8464C12.6243 46.8464 13.3689 46.1019 13.3689 45.1834C13.3689 44.265 12.6243 43.5205 11.7059 43.5205C10.7875 43.5205 10.043 44.265 10.043 45.1834C10.043 46.1019 10.7875 46.8464 11.7059 46.8464Z" fill="#FDB913"/>
<path d="M11.7059 56.7067C12.6243 56.7067 13.3689 55.9622 13.3689 55.0438C13.3689 54.1254 12.6243 53.3809 11.7059 53.3809C10.7875 53.3809 10.043 54.1254 10.043 55.0438C10.043 55.9622 10.7875 56.7067 11.7059 56.7067Z" fill="#FDB913"/>
<path d="M14.995 31.5876C15.9134 31.5876 16.6579 30.8431 16.6579 29.9247C16.6579 29.0062 15.9134 28.2617 14.995 28.2617C14.0766 28.2617 13.332 29.0062 13.332 29.9247C13.332 30.8431 14.0766 31.5876 14.995 31.5876Z" fill="#FDB913"/>
<path d="M14.995 51.5427C15.9134 51.5427 16.6579 50.7982 16.6579 49.8797C16.6579 48.9613 15.9134 48.2168 14.995 48.2168C14.0766 48.2168 13.332 48.9613 13.332 49.8797C13.332 50.7982 14.0766 51.5427 14.995 51.5427Z" fill="#FDB913"/>
<path d="M28.4266 30.0153C27.904 30.0153 27.5495 29.5877 27.6408 29.0687C27.7358 28.5461 28.2366 28.1221 28.7555 28.1221H30.1005L30.1736 27.731C30.2321 27.3875 29.9982 27.1061 29.6583 27.1061H28.3389C28.2548 27.1061 28.1964 27.033 28.2146 26.9452C28.2256 26.8539 28.3097 26.7881 28.3937 26.7881H29.7131C30.2357 26.7881 30.583 27.2084 30.4916 27.731L30.1151 29.8545C30.1042 29.9459 30.0238 30.0153 29.9361 30.0153H28.4303H28.4266ZM28.7044 28.4364C28.3572 28.4364 28.0246 28.7178 27.9588 29.065C27.9003 29.4086 28.1342 29.69 28.4814 29.69H29.8264L30.0493 28.4364H28.7044Z" fill="white"/>
<path d="M32.9659 29.8581C32.9476 29.9495 32.8636 30.0189 32.7722 30.0189L31.3249 30.0116C31.08 30.0116 30.8498 29.9093 30.7145 29.7339C30.5647 29.5548 30.5099 29.3136 30.5537 29.0687L30.7949 27.731C30.8388 27.4862 30.974 27.2449 31.186 27.0659C31.3907 26.8904 31.6465 26.7881 31.895 26.7881H33.346C33.4374 26.7881 33.4959 26.8539 33.4849 26.9452C33.4666 27.0366 33.3826 27.1061 33.2912 27.1061H31.8512C31.504 27.1061 31.175 27.3875 31.1129 27.731L30.8717 29.0687C30.8132 29.4122 31.0471 29.6937 31.3943 29.6937H32.8343C32.9257 29.6937 32.9842 29.7668 32.9659 29.8545V29.8581Z" fill="white"/>
<path d="M36.259 27.7314L35.8825 29.8512C35.8715 29.9426 35.7875 30.0194 35.6888 30.0194C35.5974 30.0194 35.5316 29.9426 35.5463 29.8512L35.9227 27.7314C35.9812 27.3952 35.7546 27.1247 35.4257 27.1247H34.6581C34.3219 27.1247 34.0112 27.3952 33.9491 27.7314L33.5727 29.8512C33.5617 29.9426 33.4703 30.0194 33.3789 30.0194C33.2876 30.0194 33.2218 29.9426 33.2364 29.8512L33.993 25.5714C34.0112 25.4801 34.1026 25.4033 34.1903 25.4033C34.278 25.4033 34.3475 25.4801 34.3292 25.5714L34.077 27.0114C34.2634 26.8726 34.49 26.7885 34.7203 26.7885H35.4878C36.0031 26.7885 36.3503 27.2088 36.2626 27.7314H36.259Z" fill="white"/>
</g>
<path d="M110.96 41.3784L111.2 51.4784H109.14L109.38 41.3784H110.96ZM110.16 37.2384C110.507 37.2384 110.807 37.365 111.06 37.6184C111.313 37.8584 111.44 38.1517 111.44 38.4984C111.44 38.845 111.313 39.145 111.06 39.3984C110.807 39.6384 110.507 39.7584 110.16 39.7584C109.813 39.7584 109.513 39.6384 109.26 39.3984C109.02 39.145 108.9 38.845 108.9 38.4984C108.9 38.1517 109.02 37.8584 109.26 37.6184C109.513 37.365 109.813 37.2384 110.16 37.2384ZM113.736 47.3184V33.3184H124.096V35.1584H115.836V39.4584H121.276V41.2384H115.836V47.3184H113.736ZM127.673 47.4984C126.94 47.4984 126.293 47.3717 125.733 47.1184C125.173 46.8517 124.733 46.485 124.413 46.0184C124.093 45.5517 123.933 45.0117 123.933 44.3984C123.933 43.4384 124.3 42.685 125.033 42.1384C125.767 41.5784 126.773 41.2984 128.053 41.2984C129.053 41.2984 129.98 41.4917 130.833 41.8784V40.7984C130.833 40.065 130.62 39.5184 130.193 39.1584C129.78 38.7984 129.167 38.6184 128.353 38.6184C127.887 38.6184 127.4 38.6917 126.893 38.8384C126.387 38.9717 125.82 39.185 125.193 39.4784L124.453 37.9784C125.227 37.6184 125.947 37.3584 126.613 37.1984C127.28 37.025 127.953 36.9384 128.633 36.9384C129.953 36.9384 130.973 37.2517 131.693 37.8784C132.427 38.505 132.793 39.3984 132.793 40.5584V47.3184H130.833V46.4384C130.38 46.7984 129.893 47.065 129.373 47.2384C128.853 47.4117 128.287 47.4984 127.673 47.4984ZM125.853 44.3584C125.853 44.8517 126.06 45.2517 126.473 45.5584C126.9 45.865 127.453 46.0184 128.133 46.0184C128.667 46.0184 129.153 45.9384 129.593 45.7784C130.047 45.6184 130.46 45.3717 130.833 45.0384V43.3184C130.447 43.0917 130.04 42.9317 129.613 42.8384C129.2 42.7317 128.733 42.6784 128.213 42.6784C127.48 42.6784 126.9 42.8317 126.473 43.1384C126.06 43.4317 125.853 43.8384 125.853 44.3584ZM127.013 35.2584L128.853 32.8184H131.253L128.693 35.2584H127.013ZM139.878 47.4984C138.905 47.4984 138.018 47.265 137.218 46.7984C136.418 46.3317 135.785 45.6984 135.318 44.8984C134.865 44.0984 134.638 43.205 134.638 42.2184C134.638 41.2317 134.871 40.345 135.338 39.5584C135.805 38.7584 136.431 38.125 137.218 37.6584C138.018 37.1784 138.905 36.9384 139.878 36.9384C140.651 36.9384 141.391 37.085 142.098 37.3784C142.818 37.6717 143.438 38.085 143.958 38.6184L142.718 39.9984C142.331 39.5717 141.898 39.2517 141.418 39.0384C140.938 38.825 140.438 38.7184 139.918 38.7184C139.305 38.7184 138.745 38.8717 138.238 39.1784C137.745 39.485 137.351 39.905 137.058 40.4384C136.765 40.9717 136.618 41.565 136.618 42.2184C136.618 42.8717 136.765 43.465 137.058 43.9984C137.351 44.5317 137.751 44.9584 138.258 45.2784C138.765 45.585 139.331 45.7384 139.958 45.7384C140.478 45.7384 140.965 45.6384 141.418 45.4384C141.871 45.225 142.298 44.9184 142.698 44.5184L143.918 45.7984C143.385 46.345 142.765 46.765 142.058 47.0584C141.365 47.3517 140.638 47.4984 139.878 47.4984ZM145.528 47.3184V37.1384H147.528V47.3184H145.528ZM146.528 35.4984C146.194 35.4984 145.908 35.3784 145.668 35.1384C145.428 34.885 145.308 34.5917 145.308 34.2584C145.308 33.9117 145.428 33.625 145.668 33.3984C145.908 33.1584 146.194 33.0384 146.528 33.0384C146.874 33.0384 147.168 33.1584 147.408 33.3984C147.648 33.625 147.768 33.9117 147.768 34.2584C147.768 34.5917 147.648 34.885 147.408 35.1384C147.168 35.3784 146.874 35.4984 146.528 35.4984ZM149.883 47.3184V33.3184L151.883 32.9384V47.3184H149.883ZM153.599 50.1784L154.839 45.5184H156.959L155.119 50.1784H153.599ZM163.418 47.3184V37.1384H165.418V38.4384C165.738 37.9584 166.132 37.585 166.598 37.3184C167.078 37.0384 167.618 36.8984 168.218 36.8984C168.632 36.9117 168.972 36.9717 169.238 37.0784V38.8784C169.052 38.7984 168.858 38.745 168.658 38.7184C168.458 38.6784 168.258 38.6584 168.058 38.6584C167.472 38.6584 166.952 38.8184 166.498 39.1384C166.045 39.445 165.685 39.8984 165.418 40.4984V47.3184H163.418ZM173.65 47.4984C172.917 47.4984 172.27 47.3717 171.71 47.1184C171.15 46.8517 170.71 46.485 170.39 46.0184C170.07 45.5517 169.91 45.0117 169.91 44.3984C169.91 43.4384 170.277 42.685 171.01 42.1384C171.743 41.5784 172.75 41.2984 174.03 41.2984C175.03 41.2984 175.957 41.4917 176.81 41.8784V40.7984C176.81 40.065 176.597 39.5184 176.17 39.1584C175.757 38.7984 175.143 38.6184 174.33 38.6184C173.863 38.6184 173.377 38.6917 172.87 38.8384C172.363 38.9717 171.797 39.185 171.17 39.4784L170.43 37.9784C171.203 37.6184 171.923 37.3584 172.59 37.1984C173.257 37.025 173.93 36.9384 174.61 36.9384C175.93 36.9384 176.95 37.2517 177.67 37.8784C178.403 38.505 178.77 39.3984 178.77 40.5584V47.3184H176.81V46.4384C176.357 46.7984 175.87 47.065 175.35 47.2384C174.83 47.4117 174.263 47.4984 173.65 47.4984ZM171.83 44.3584C171.83 44.8517 172.037 45.2517 172.45 45.5584C172.877 45.865 173.43 46.0184 174.11 46.0184C174.643 46.0184 175.13 45.9384 175.57 45.7784C176.023 45.6184 176.437 45.3717 176.81 45.0384V43.3184C176.423 43.0917 176.017 42.9317 175.59 42.8384C175.177 42.7317 174.71 42.6784 174.19 42.6784C173.457 42.6784 172.877 42.8317 172.45 43.1384C172.037 43.4317 171.83 43.8384 171.83 44.3584ZM172.99 35.2584L174.83 32.8184H177.23L174.67 35.2584H172.99ZM181.075 51.3984V37.1384H183.055V38.1184C183.908 37.3584 184.948 36.9784 186.175 36.9784C187.135 36.9784 188.001 37.2117 188.775 37.6784C189.561 38.145 190.181 38.7717 190.635 39.5584C191.088 40.345 191.315 41.2317 191.315 42.2184C191.315 43.205 191.081 44.0984 190.615 44.8984C190.161 45.685 189.541 46.3117 188.755 46.7784C187.981 47.245 187.108 47.4784 186.135 47.4784C185.575 47.4784 185.035 47.3917 184.515 47.2184C183.995 47.0317 183.515 46.7717 183.075 46.4384V51.3984H181.075ZM185.915 45.7384C186.568 45.7384 187.148 45.585 187.655 45.2784C188.175 44.9717 188.588 44.5584 188.895 44.0384C189.201 43.505 189.355 42.905 189.355 42.2384C189.355 41.5717 189.201 40.9717 188.895 40.4384C188.588 39.905 188.175 39.485 187.655 39.1784C187.148 38.8717 186.568 38.7184 185.915 38.7184C185.341 38.7184 184.808 38.825 184.315 39.0384C183.821 39.2517 183.408 39.5517 183.075 39.9384V44.5384C183.408 44.9117 183.821 45.205 184.315 45.4184C184.821 45.6317 185.355 45.7384 185.915 45.7384ZM193.223 47.3184V37.1384H195.223V47.3184H193.223ZM194.223 35.4984C193.89 35.4984 193.603 35.3784 193.363 35.1384C193.123 34.885 193.003 34.5917 193.003 34.2584C193.003 33.9117 193.123 33.625 193.363 33.3984C193.603 33.1584 193.89 33.0384 194.223 33.0384C194.57 33.0384 194.863 33.1584 195.103 33.3984C195.343 33.625 195.463 33.9117 195.463 34.2584C195.463 34.5917 195.343 34.885 195.103 35.1384C194.863 35.3784 194.57 35.4984 194.223 35.4984ZM202.258 47.4784C201.312 47.4784 200.445 47.245 199.658 46.7784C198.872 46.3117 198.252 45.685 197.798 44.8984C197.345 44.0984 197.118 43.205 197.118 42.2184C197.118 41.2317 197.345 40.345 197.798 39.5584C198.265 38.7717 198.892 38.145 199.678 37.6784C200.465 37.2117 201.338 36.9784 202.298 36.9784C202.858 36.9784 203.398 37.065 203.918 37.2384C204.438 37.4117 204.918 37.665 205.358 37.9984V33.3184L207.358 32.9384V47.3184H205.378V46.3384C204.512 47.0984 203.472 47.4784 202.258 47.4784ZM202.518 45.7384C203.105 45.7384 203.638 45.6317 204.118 45.4184C204.612 45.205 205.025 44.8984 205.358 44.4984V39.9184C205.025 39.545 204.612 39.2517 204.118 39.0384C203.638 38.8117 203.105 38.6984 202.518 38.6984C201.878 38.6984 201.298 38.8517 200.778 39.1584C200.258 39.465 199.845 39.885 199.538 40.4184C199.232 40.9384 199.078 41.5317 199.078 42.1984C199.078 42.865 199.232 43.465 199.538 43.9984C199.845 44.5317 200.258 44.9584 200.778 45.2784C201.298 45.585 201.878 45.7384 202.518 45.7384ZM214.567 47.5184C213.58 47.5184 212.68 47.285 211.867 46.8184C211.067 46.3517 210.434 45.7184 209.967 44.9184C209.5 44.1184 209.267 43.225 209.267 42.2384C209.267 41.2517 209.5 40.3584 209.967 39.5584C210.434 38.7584 211.067 38.125 211.867 37.6584C212.68 37.1784 213.58 36.9384 214.567 36.9384C215.567 36.9384 216.467 37.1784 217.267 37.6584C218.067 38.125 218.7 38.7584 219.167 39.5584C219.634 40.3584 219.867 41.2517 219.867 42.2384C219.867 43.225 219.634 44.1184 219.167 44.9184C218.7 45.7184 218.067 46.3517 217.267 46.8184C216.467 47.285 215.567 47.5184 214.567 47.5184ZM214.567 45.7584C215.194 45.7584 215.76 45.605 216.267 45.2984C216.774 44.9784 217.174 44.5517 217.467 44.0184C217.76 43.485 217.907 42.885 217.907 42.2184C217.907 41.565 217.754 40.9784 217.447 40.4584C217.154 39.925 216.754 39.4984 216.247 39.1784C215.754 38.8584 215.194 38.6984 214.567 38.6984C213.94 38.6984 213.374 38.8584 212.867 39.1784C212.374 39.4984 211.974 39.925 211.667 40.4584C211.374 40.9784 211.227 41.565 211.227 42.2184C211.227 42.885 211.374 43.485 211.667 44.0184C211.96 44.5517 212.36 44.9784 212.867 45.2984C213.374 45.605 213.94 45.7584 214.567 45.7584ZM226.618 51.6184C226.404 51.6184 226.204 51.605 226.018 51.5784C225.831 51.565 225.678 51.5384 225.558 51.4984V49.7384C225.798 49.7917 226.091 49.8184 226.438 49.8184C227.371 49.8184 228.044 49.3184 228.458 48.3184L228.898 47.3384L224.818 37.1384H227.038L229.998 44.8984L233.278 37.1384H235.438L230.518 48.5784C230.198 49.2984 229.858 49.8784 229.498 50.3184C229.138 50.7717 228.724 51.0984 228.258 51.2984C227.791 51.5117 227.244 51.6184 226.618 51.6184ZM244.36 47.5184C243.48 47.5184 242.653 47.3917 241.88 47.1384C241.12 46.8717 240.46 46.4984 239.9 46.0184L241 44.6984C241.52 45.1117 242.053 45.4317 242.6 45.6584C243.16 45.8717 243.726 45.9784 244.3 45.9784C245.02 45.9784 245.606 45.8384 246.06 45.5584C246.513 45.2784 246.74 44.9117 246.74 44.4584C246.74 44.085 246.606 43.7917 246.34 43.5784C246.073 43.365 245.66 43.2184 245.1 43.1384L243.26 42.8784C242.246 42.7317 241.486 42.4184 240.98 41.9384C240.473 41.4584 240.22 40.8184 240.22 40.0184C240.22 39.405 240.386 38.8717 240.72 38.4184C241.053 37.9517 241.52 37.5917 242.12 37.3384C242.72 37.0717 243.42 36.9384 244.22 36.9384C244.953 36.9384 245.66 37.045 246.34 37.2584C247.02 37.4717 247.673 37.805 248.3 38.2584L247.28 39.5784C246.72 39.205 246.173 38.9317 245.64 38.7584C245.12 38.585 244.593 38.4984 244.06 38.4984C243.446 38.4984 242.953 38.6317 242.58 38.8984C242.206 39.1517 242.02 39.485 242.02 39.8984C242.02 40.2717 242.146 40.565 242.4 40.7784C242.666 40.9784 243.1 41.1184 243.7 41.1984L245.54 41.4584C246.553 41.605 247.32 41.9184 247.84 42.3984C248.36 42.865 248.62 43.4984 248.62 44.2984C248.62 44.9117 248.433 45.465 248.06 45.9584C247.686 46.4384 247.18 46.8184 246.54 47.0984C245.9 47.3784 245.173 47.5184 244.36 47.5184ZM255.134 47.4984C254.134 47.4984 253.228 47.265 252.414 46.7984C251.614 46.3317 250.974 45.6984 250.494 44.8984C250.028 44.0984 249.794 43.205 249.794 42.2184C249.794 41.245 250.021 40.365 250.474 39.5784C250.928 38.7784 251.541 38.145 252.314 37.6784C253.088 37.1984 253.948 36.9584 254.894 36.9584C255.841 36.9584 256.681 37.1984 257.414 37.6784C258.148 38.145 258.728 38.785 259.154 39.5984C259.594 40.3984 259.814 41.305 259.814 42.3184V42.8784H251.794C251.901 43.4384 252.108 43.9384 252.414 44.3784C252.734 44.8184 253.134 45.165 253.614 45.4184C254.108 45.6717 254.641 45.7984 255.214 45.7984C255.708 45.7984 256.181 45.725 256.634 45.5784C257.101 45.4184 257.488 45.1917 257.794 44.8984L259.074 46.1584C258.474 46.6117 257.854 46.9517 257.214 47.1784C256.588 47.3917 255.894 47.4984 255.134 47.4984ZM251.814 41.3784H257.834C257.754 40.845 257.568 40.3784 257.274 39.9784C256.994 39.565 256.641 39.245 256.214 39.0184C255.801 38.7784 255.348 38.6584 254.854 38.6584C254.348 38.6584 253.881 38.7717 253.454 38.9984C253.028 39.225 252.668 39.545 252.374 39.9584C252.094 40.3584 251.908 40.8317 251.814 41.3784ZM266.798 51.5984C266.051 51.5984 265.325 51.5117 264.618 51.3384C263.911 51.165 263.271 50.9184 262.698 50.5984L263.458 49.0384C264.058 49.345 264.618 49.565 265.138 49.6984C265.671 49.845 266.205 49.9184 266.738 49.9184C267.631 49.9184 268.305 49.7117 268.758 49.2984C269.225 48.885 269.458 48.2784 269.458 47.4784V46.3184C268.565 47.025 267.545 47.3784 266.398 47.3784C265.465 47.3784 264.605 47.1517 263.818 46.6984C263.045 46.2317 262.431 45.605 261.978 44.8184C261.525 44.0184 261.298 43.1384 261.298 42.1784C261.298 41.205 261.525 40.325 261.978 39.5384C262.445 38.7384 263.065 38.1117 263.838 37.6584C264.625 37.1917 265.505 36.9584 266.478 36.9584C267.025 36.9584 267.551 37.0517 268.058 37.2384C268.578 37.4117 269.051 37.665 269.478 37.9984V37.1384H271.458V47.4784C271.458 48.7984 271.051 49.8117 270.238 50.5184C269.438 51.2384 268.291 51.5984 266.798 51.5984ZM266.658 45.6584C267.245 45.6584 267.778 45.5584 268.258 45.3584C268.738 45.145 269.138 44.845 269.458 44.4584V39.8984C269.138 39.525 268.731 39.2317 268.238 39.0184C267.758 38.805 267.231 38.6984 266.658 38.6984C266.018 38.6984 265.438 38.8517 264.918 39.1584C264.411 39.465 264.005 39.885 263.698 40.4184C263.405 40.9384 263.258 41.525 263.258 42.1784C263.258 42.8317 263.405 43.425 263.698 43.9584C264.005 44.4784 264.411 44.8917 264.918 45.1984C265.438 45.505 266.018 45.6584 266.658 45.6584ZM277.749 47.5184C276.962 47.5184 276.269 47.3517 275.669 47.0184C275.069 46.685 274.602 46.2184 274.269 45.6184C273.936 45.005 273.769 44.305 273.769 43.5184V37.1384H275.749V43.1784C275.749 43.9784 275.976 44.6117 276.429 45.0784C276.896 45.545 277.516 45.7784 278.289 45.7784C278.836 45.7784 279.322 45.665 279.749 45.4384C280.176 45.1984 280.522 44.865 280.789 44.4384V37.1384H282.789V47.3184H280.789V46.2784C280.002 47.105 278.989 47.5184 277.749 47.5184ZM285.157 47.3184V37.1384H287.157V38.4384C287.477 37.9584 287.87 37.585 288.337 37.3184C288.817 37.0384 289.357 36.8984 289.957 36.8984C290.37 36.9117 290.71 36.9717 290.977 37.0784V38.8784C290.79 38.7984 290.597 38.745 290.397 38.7184C290.197 38.6784 289.997 38.6584 289.797 38.6584C289.21 38.6584 288.69 38.8184 288.237 39.1384C287.783 39.445 287.423 39.8984 287.157 40.4984V47.3184H285.157ZM296.833 47.5184C295.846 47.5184 294.946 47.285 294.133 46.8184C293.333 46.3517 292.699 45.7184 292.233 44.9184C291.766 44.1184 291.533 43.225 291.533 42.2384C291.533 41.2517 291.766 40.3584 292.233 39.5584C292.699 38.7584 293.333 38.125 294.133 37.6584C294.946 37.1784 295.846 36.9384 296.833 36.9384C297.833 36.9384 298.733 37.1784 299.533 37.6584C300.333 38.125 300.966 38.7584 301.433 39.5584C301.899 40.3584 302.133 41.2517 302.133 42.2384C302.133 43.225 301.899 44.1184 301.433 44.9184C300.966 45.7184 300.333 46.3517 299.533 46.8184C298.733 47.285 297.833 47.5184 296.833 47.5184ZM296.833 45.7584C297.459 45.7584 298.026 45.605 298.533 45.2984C299.039 44.9784 299.439 44.5517 299.733 44.0184C300.026 43.485 300.173 42.885 300.173 42.2184C300.173 41.565 300.019 40.9784 299.713 40.4584C299.419 39.925 299.019 39.4984 298.513 39.1784C298.019 38.8584 297.459 38.6984 296.833 38.6984C296.206 38.6984 295.639 38.8584 295.133 39.1784C294.639 39.4984 294.239 39.925 293.933 40.4584C293.639 40.9784 293.493 41.565 293.493 42.2184C293.493 42.885 293.639 43.485 293.933 44.0184C294.226 44.5517 294.626 44.9784 295.133 45.2984C295.639 45.605 296.206 45.7584 296.833 45.7584ZM304.204 43.3184L303.964 33.2184H306.024L305.784 43.3184H304.204ZM305.004 47.4584C304.657 47.4584 304.357 47.3384 304.104 47.0984C303.85 46.845 303.724 46.545 303.724 46.1984C303.724 45.8517 303.85 45.5584 304.104 45.3184C304.357 45.065 304.657 44.9384 305.004 44.9384C305.35 44.9384 305.644 45.065 305.884 45.3184C306.137 45.5584 306.264 45.8517 306.264 46.1984C306.264 46.545 306.137 46.845 305.884 47.0984C305.644 47.3384 305.35 47.4584 305.004 47.4584Z" fill="#065EA6"/>
<defs>
<filter id="filter0_d_432_8655" x="0" y="-3.68164" width="88" height="88" filterUnits="userSpaceOnUse" color-interpolation-filters="sRGB">
<feFlood flood-opacity="0" result="BackgroundImageFix"/>
<feColorMatrix in="SourceAlpha" type="matrix" values="0 0 0 0 0 0 0 0 0 0 0 0 0 0 0 0 0 0 127 0" result="hardAlpha"/>
<feOffset/>
<feGaussianBlur stdDeviation="4"/>
<feComposite in2="hardAlpha" operator="out"/>
<feColorMatrix type="matrix" values="0 0 0 0 0 0 0 0 0 0 0 0 0 0 0 0 0 0 0.25 0"/>
<feBlend mode="normal" in2="BackgroundImageFix" result="effect1_dropShadow_432_8655"/>
<feBlend mode="normal" in="SourceGraphic" in2="effect1_dropShadow_432_8655" result="shape"/>
</filter>
<radialGradient id="paint0_radial_432_8655" cx="0" cy="0" r="1" gradientUnits="userSpaceOnUse" gradientTransform="translate(43.8173 34.1052) rotate(89.752) scale(42.2136)">
<stop stop-color="#065EA6"/>
<stop offset="1" stop-color="#092E4C"/>
</radialGradient>
</defs>
</svg>
