<svg xmlns="http://www.w3.org/2000/svg" width="104" height="32" fill="none"><path fill="#DA0081" d="M5.3 0H.917A.916.916 0 0 0 0 .913v3.7c0 .504.411.913.918.913H5.3a.916.916 0 0 0 .918-.913v-3.7A.916.916 0 0 0 5.3 0Z"/><path fill="#200020" d="M31.988 0H28.22a.915.915 0 0 0-.919.913v14.975c0 .304-.402.416-.547.144L17.992.4a.787.787 0 0 0-.709-.4h-6.265a.915.915 0 0 0-.918.913V24.84c0 .512.418.913.918.913h3.769a.915.915 0 0 0 .918-.913V9.417c0-.304.402-.416.547-.144l9.004 16.096c.145.257.402.4.709.4h5.991a.915.915 0 0 0 .918-.912V.913A.915.915 0 0 0 31.956 0h.032ZM54.649 16.416c0-6.742-4.413-10.09-9.261-10.09-6.298 0-9.89 4.34-9.89 10.203 0 6.662 4.51 9.833 9.745 9.833 5.234 0 8.294-2.69 9.116-6.182.113-.448-.145-.849-.822-.849h-2.963a.813.813 0 0 0-.773.513c-.741 1.617-1.933 2.466-4.22 2.466-2.593 0-4.333-1.617-4.59-4.9h12.74c.547 0 .918-.4.918-.994Zm-13.45-2.546c.548-2.418 1.966-3.491 4.108-3.491 1.917 0 3.56 1.105 3.785 3.491H41.2ZM103.082 6.807h-3.785a.915.915 0 0 0-.918.913v17.137c0 .504.41.913.918.913h3.785a.915.915 0 0 0 .918-.913V7.72a.915.915 0 0 0-.918-.913ZM74.977 6.807h-3.77a.915.915 0 0 0-.917.913v.929c-1.128-1.314-2.98-2.227-5.412-2.227-5.444 0-8.327 4.901-8.327 10.09 0 4.533 2.367 9.61 8.214 9.61 2.094 0 4.317-.993 5.525-2.402v7.367c0 .512.418.913.918.913h3.769a.915.915 0 0 0 .918-.913V7.736a.915.915 0 0 0-.918-.913v-.016Zm-8.585 15.279c-2.48 0-4.22-1.81-4.22-5.702s1.74-5.926 4.22-5.926c2.48 0 4.22 1.874 4.22 5.926s-1.74 5.702-4.22 5.702ZM95.045 6.807h-3.769a.915.915 0 0 0-.918.913v9.69c0 3.123-1.401 4.035-3.189 4.035s-3.189-.912-3.189-4.035V7.72a.915.915 0 0 0-.918-.913h-3.769a.915.915 0 0 0-.918.913v10.09c0 6.006 3.334 8.424 8.81 8.424 5.477 0 8.81-2.434 8.81-8.424V7.72a.915.915 0 0 0-.918-.913h-.032Z"/></svg>